<?xml version="1.0" encoding="utf-8"?>
<!-- Generator: Adobe Illustrator 19.2.1, SVG Export Plug-In . SVG Version: 6.00 Build 0)  -->
<!DOCTYPE svg PUBLIC "-//W3C//DTD SVG 1.1//EN" "http://www.w3.org/Graphics/SVG/1.1/DTD/svg11.dtd">
<svg version="1.1" id="Layer_1" xmlns="http://www.w3.org/2000/svg" xmlns:xlink="http://www.w3.org/1999/xlink" x="0px" y="0px"
	 width="76px" height="88.4px" viewBox="0 0 76 88.4" style="enable-background:new 0 0 76 88.4;" xml:space="preserve">
<style type="text/css">
	.st0{fill:none;stroke:#FFFFFF;stroke-width:8;stroke-linecap:round;stroke-miterlimit:10;}
	.st1{fill:#FFFFFF;}
</style>
<g>
	<path class="st0" d="M70.1,72.8C63.2,79.1,54,82.9,44,82.9c-21.4,0-38.7-17.3-38.7-38.7S22.6,5.6,44,5.6c9.8,0,18.8,3.7,25.6,9.7"
		/>
	<g>
		<path class="st1" d="M68.1,77.3c-3,0-12.9,6.1-14,3.1L27.9,12c-1.4-3.9,11-8.3,14.9-9.8c3.9-1.4,8.2,0.5,9.6,4.4L74,65.2
			c2.6,5.7,0.9,10-3,11.5C70.2,77,68.9,77.3,68.1,77.3z"/>
	</g>
	<g>
		<path class="st1" d="M52.9,45.2H9.3c-4.1,0-5.1-5.4-5.1-9.5s1-7.5,5.1-7.5H53c4.1,0,7.5,3.4,7.5,7.5S57.1,45.2,52.9,45.2z"/>
	</g>
</g>
</svg>
