<?xml version="1.0" encoding="utf-8"?>
<!-- Generator: Adobe Illustrator 19.2.1, SVG Export Plug-In . SVG Version: 6.00 Build 0)  -->
<!DOCTYPE svg PUBLIC "-//W3C//DTD SVG 1.1//EN" "http://www.w3.org/Graphics/SVG/1.1/DTD/svg11.dtd">
<svg version="1.1" id="Layer_1" xmlns="http://www.w3.org/2000/svg" xmlns:xlink="http://www.w3.org/1999/xlink" x="0px" y="0px"
	 viewBox="0 0 250.5 29.8" style="enable-background:new 0 0 250.5 29.8;" xml:space="preserve">
<style type="text/css">
	.st0{fill:#FFFFFF;}
</style>
<g>
	<path class="st0" d="M28.2,29.5h-4.2c-0.5,0-0.9-0.1-1.2-0.3c-0.3-0.2-0.5-0.5-0.6-0.9l-2.2-5.9h-12L6,28.3
		c-0.1,0.3-0.3,0.6-0.6,0.8c-0.3,0.3-0.7,0.4-1.2,0.4H0L11.4,0.6h5.5L28.2,29.5z M9.5,18.6h9.2L15.2,9C15,8.5,14.9,8,14.7,7.5
		c-0.2-0.6-0.4-1.2-0.6-1.9c-0.2,0.7-0.4,1.3-0.6,1.9C13.4,8.1,13.2,8.6,13,9L9.5,18.6z"/>
	<path class="st0" d="M43.4,18.8c0.2,0.5,0.4,0.9,0.6,1.4c0.2-0.5,0.4-1,0.6-1.4c0.2-0.5,0.4-0.9,0.6-1.3l8.6-16
		C53.8,1.2,53.9,1.1,54,1s0.2-0.2,0.4-0.3c0.1-0.1,0.3-0.1,0.5-0.1c0.2,0,0.4,0,0.6,0h4.1v28.9h-4.7V10.8c0-0.3,0-0.7,0-1.1
		c0-0.4,0.1-0.8,0.1-1.3l-8.7,16.4c-0.2,0.4-0.5,0.7-0.8,0.9c-0.3,0.2-0.7,0.3-1.1,0.3h-0.7c-0.4,0-0.8-0.1-1.1-0.3
		c-0.3-0.2-0.6-0.5-0.8-0.9L32.8,8.4c0.1,0.4,0.1,0.9,0.1,1.3s0,0.8,0,1.2v18.7h-4.7V0.6h4.1c0.2,0,0.4,0,0.6,0c0.2,0,0.3,0,0.5,0.1
		c0.1,0.1,0.3,0.1,0.4,0.3s0.2,0.3,0.3,0.5l8.6,16.1C43,17.9,43.2,18.4,43.4,18.8z"/>
	<path class="st0" d="M60.2,19.4v10.2h-5.4l0-28.9l0,0l0.7-0.1h4.7h4.1c1.9,0,3.6,0.3,5,0.8c1.4,0.5,2.6,1.1,3.5,1.9s1.6,1.8,2,2.9
		c0.4,1.1,0.7,2.4,0.7,3.7c0,1.4-0.2,2.7-0.7,3.9c-0.5,1.2-1.2,2.2-2.1,3c-0.9,0.8-2.1,1.5-3.5,2s-3,0.7-4.9,0.7H60.2z M60.2,15.2h4
		c1,0,1.8-0.1,2.6-0.4c0.7-0.2,1.3-0.6,1.8-1.1s0.8-1,1.1-1.7s0.4-1.4,0.4-2.2c0-0.8-0.1-1.5-0.4-2.1s-0.6-1.2-1.1-1.6
		c-0.5-0.4-1.1-0.8-1.8-1c-0.7-0.2-1.6-0.3-2.6-0.3h-4V15.2z"/>
	<path class="st0" d="M84.1,25.1h11.6v4.4h-17V0.6h5.4V25.1z"/>
	<path class="st0" d="M113.9,0.6v4.3h-12.8v8h10.1V17h-10.1v8.2h12.8v4.3H95.7V0.6H113.9z"/>
	<path class="st0" d="M153.5,22.7c0.3,0,0.5,0.1,0.8,0.3l2.1,2.3c-1.2,1.5-2.6,2.6-4.3,3.3c-1.7,0.8-3.8,1.2-6.2,1.2
		c-2.1,0-4.1-0.4-5.8-1.1c-1.7-0.7-3.2-1.8-4.4-3.1c-1.2-1.3-2.1-2.9-2.8-4.7c-0.6-1.8-1-3.8-1-5.9c0-2.2,0.4-4.2,1.1-6
		c0.7-1.8,1.7-3.4,3-4.7s2.9-2.3,4.7-3.1c1.8-0.7,3.8-1.1,6-1.1c2.1,0,4,0.3,5.6,1c1.6,0.7,3,1.6,4.1,2.7l-1.8,2.5
		c-0.1,0.2-0.2,0.3-0.4,0.4c-0.2,0.1-0.4,0.2-0.7,0.2c-0.3,0-0.6-0.1-0.9-0.4S152,6.3,151.5,6c-0.5-0.3-1.1-0.5-1.9-0.8
		s-1.7-0.4-2.9-0.4c-1.4,0-2.6,0.2-3.8,0.7c-1.1,0.5-2.1,1.2-2.9,2c-0.8,0.9-1.5,2-1.9,3.2s-0.7,2.7-0.7,4.2c0,1.6,0.2,3.1,0.7,4.3
		s1.1,2.3,1.9,3.2c0.8,0.9,1.7,1.5,2.8,2c1.1,0.5,2.2,0.7,3.4,0.7c0.7,0,1.4,0,2-0.1c0.6-0.1,1.1-0.2,1.6-0.4c0.5-0.2,1-0.4,1.4-0.7
		s0.9-0.6,1.3-1c0.1-0.1,0.3-0.2,0.4-0.3S153.3,22.7,153.5,22.7z"/>
	<path class="st0" d="M165.3,18.2v11.3h-5.4V0.6h8.8c2,0,3.7,0.2,5.1,0.6c1.4,0.4,2.6,1,3.5,1.7c0.9,0.7,1.6,1.6,2,2.6
		c0.4,1,0.6,2.1,0.6,3.4c0,1-0.1,1.9-0.4,2.8s-0.7,1.7-1.2,2.4c-0.5,0.7-1.2,1.3-2,1.9c-0.8,0.5-1.7,1-2.7,1.3
		c0.7,0.4,1.3,0.9,1.8,1.7l7.2,10.7h-4.8c-0.5,0-0.9-0.1-1.2-0.3c-0.3-0.2-0.6-0.5-0.8-0.8l-6.1-9.3c-0.2-0.3-0.5-0.6-0.8-0.7
		c-0.3-0.1-0.7-0.2-1.2-0.2H165.3z M165.3,14.3h3.4c1,0,1.9-0.1,2.7-0.4c0.8-0.3,1.4-0.6,1.9-1c0.5-0.4,0.9-1,1.1-1.6
		c0.2-0.6,0.4-1.3,0.4-2c0-1.5-0.5-2.6-1.5-3.4c-1-0.8-2.4-1.2-4.4-1.2h-3.4V14.3z"/>
	<path class="st0" d="M209.7,29.5h-4.2c-0.5,0-0.8-0.1-1.1-0.3s-0.5-0.5-0.7-0.9l-2.2-5.9h-12l-2.2,5.9c-0.1,0.3-0.3,0.6-0.6,0.8
		c-0.3,0.3-0.7,0.4-1.2,0.4h-4.2l11.4-28.9h5.5L209.7,29.5z M191,18.6h9.2L196.7,9c-0.2-0.4-0.3-0.9-0.5-1.5s-0.4-1.2-0.6-1.9
		c-0.2,0.7-0.4,1.3-0.5,1.9s-0.4,1.1-0.5,1.5L191,18.6z"/>
	<path class="st0" d="M227.9,0.6v4.3h-12.8v8.6h10.8v4.3h-10.8v11.8h-5.4V0.6H227.9z"/>
	<path class="st0" d="M250.5,0.6v4.3h-8.7v24.6h-5.4V4.9h-8.8V0.6H250.5z"/>
</g>
</svg>
