<?xml version="1.0" encoding="utf-8"?>
<!-- Generator: Adobe Illustrator 19.2.1, SVG Export Plug-In . SVG Version: 6.00 Build 0)  -->
<!DOCTYPE svg PUBLIC "-//W3C//DTD SVG 1.1//EN" "http://www.w3.org/Graphics/SVG/1.1/DTD/svg11.dtd">
<svg version="1.1" id="Layer_1" xmlns="http://www.w3.org/2000/svg" xmlns:xlink="http://www.w3.org/1999/xlink" x="0px" y="0px"
	 width="203.7px" height="101.8px" viewBox="0 0 203.7 101.8" style="enable-background:new 0 0 203.7 101.8;" xml:space="preserve"
	>
<style type="text/css">
	.st0{fill:none;stroke:#B5B5B6;stroke-width:3;stroke-miterlimit:10;}
</style>
<g>
	<path class="st0" d="M132.7,44c8.3,0,15.1,6.8,15.1,15.1"/>
	<path class="st0" d="M178,59.1c0,8.3-6.8,15.1-15.1,15.1s-15.1-6.8-15.1-15.1"/>
	<path class="st0" d="M178,59.1c0-8.3,6.8-15.1,15.1-15.1"/>
</g>
<g>
	<path class="st0" d="M72.2,44c8.3,0,15.1,6.8,15.1,15.1"/>
	<path class="st0" d="M117.6,59.1c0,8.3-6.8,15.1-15.1,15.1s-15.1-6.8-15.1-15.1"/>
	<path class="st0" d="M117.6,59.1c0-8.3,6.8-15.1,15.1-15.1"/>
</g>
<g>
	<path class="st0" d="M11.7,44c8.3,0,15.1,6.8,15.1,15.1"/>
	<path class="st0" d="M57.1,59.1c0,8.3-6.8,15.1-15.1,15.1s-15.1-6.8-15.1-15.1"/>
	<path class="st0" d="M57.1,59.1c0-8.3,6.8-15.1,15.1-15.1"/>
</g>
<g>
	<path class="st0" d="M132.7,30c8.3,0,15.1,6.8,15.1,15.1"/>
	<path class="st0" d="M178,45.1c0,8.3-6.8,15.1-15.1,15.1s-15.1-6.8-15.1-15.1"/>
	<path class="st0" d="M178,45.1c0-8.3,6.8-15.1,15.1-15.1"/>
</g>
<g>
	<path class="st0" d="M72.2,30c8.3,0,15.1,6.8,15.1,15.1"/>
	<path class="st0" d="M117.6,45.1c0,8.3-6.8,15.1-15.1,15.1s-15.1-6.8-15.1-15.1"/>
	<path class="st0" d="M117.6,45.1c0-8.3,6.8-15.1,15.1-15.1"/>
</g>
<g>
	<path class="st0" d="M11.7,30c8.3,0,15.1,6.8,15.1,15.1"/>
	<path class="st0" d="M57.1,45.1c0,8.3-6.8,15.1-15.1,15.1s-15.1-6.8-15.1-15.1"/>
	<path class="st0" d="M57.1,45.1c0-8.3,6.8-15.1,15.1-15.1"/>
</g>
</svg>
