<svg id="backup_copy_2" data-name="backup copy 2" xmlns="http://www.w3.org/2000/svg" width="2482.31" height="156.93" viewBox="0 0 2482.31 156.93"><defs><style>.cls-1{opacity:0.1;}.cls-2,.cls-4{fill:none;stroke:#fff;stroke-miterlimit:10;stroke-width:6px;}.cls-3{fill:#fff;}.cls-4{stroke-linecap:round;}</style></defs><title>devices</title><g class="cls-1"><g id="Tablet"><rect class="cls-2" x="430.01" y="46.56" width="80.95" height="106.07" rx="6" ry="6"/><ellipse class="cls-3" cx="470.49" cy="138.84" rx="3.23" ry="3.07"/></g><g id="Tablet-2" data-name="Tablet"><rect class="cls-2" x="236.39" y="46.56" width="167.1" height="106.07" rx="6" ry="6"/><ellipse class="cls-3" cx="249.12" cy="58.11" rx="2.2" ry="2.09"/><line class="cls-4" x1="256.59" y1="58.11" x2="390.77" y2="58.11"/></g><g id="Tablet-3" data-name="Tablet"><rect class="cls-2" x="537.82" y="94.25" width="37.36" height="57.34" rx="6" ry="6"/><ellipse class="cls-3" cx="556.5" cy="138.84" rx="3.23" ry="3.07"/></g><rect class="cls-2" x="600.01" y="3" width="205.58" height="118.65" rx="6" ry="6"/><rect class="cls-2" x="675.67" y="121.65" width="54.27" height="29.94"/><line class="cls-4" x1="744.24" y1="151.59" x2="661.37" y2="151.59"/><rect class="cls-2" x="17.16" y="44.77" width="165.72" height="90.88" rx="6" ry="6"/><rect class="cls-2" x="3" y="135.66" width="194.05" height="18.27" rx="5.95" ry="5.95"/><g id="Tablet-4" data-name="Tablet"><rect class="cls-2" x="1264.68" y="46.56" width="80.95" height="106.07" rx="6" ry="6"/><ellipse class="cls-3" cx="1305.16" cy="138.84" rx="3.23" ry="3.07"/></g><g id="Tablet-5" data-name="Tablet"><rect class="cls-2" x="1071.05" y="46.56" width="167.1" height="106.07" rx="6" ry="6"/><ellipse class="cls-3" cx="1083.79" cy="58.11" rx="2.2" ry="2.09"/><line class="cls-4" x1="1091.26" y1="58.11" x2="1225.44" y2="58.11"/></g><g id="Tablet-6" data-name="Tablet"><rect class="cls-2" x="1372.49" y="94.25" width="37.36" height="57.34" rx="6" ry="6"/><ellipse class="cls-3" cx="1391.17" cy="138.84" rx="3.23" ry="3.07"/></g><rect class="cls-2" x="1434.68" y="3" width="205.58" height="118.65" rx="6" ry="6"/><rect class="cls-2" x="1510.34" y="121.65" width="54.27" height="29.94"/><line class="cls-4" x1="1578.91" y1="151.59" x2="1496.04" y2="151.59"/><rect class="cls-2" x="851.83" y="44.77" width="165.72" height="90.88" rx="6" ry="6"/><rect class="cls-2" x="837.67" y="135.66" width="194.05" height="18.27" rx="5.95" ry="5.95"/><g id="Tablet-7" data-name="Tablet"><rect class="cls-2" x="2103.73" y="46.56" width="80.95" height="106.07" rx="6" ry="6"/><ellipse class="cls-3" cx="2144.2" cy="138.84" rx="3.23" ry="3.07"/></g><g id="Tablet-8" data-name="Tablet"><rect class="cls-2" x="1910.1" y="46.56" width="167.1" height="106.07" rx="6" ry="6"/><ellipse class="cls-3" cx="1922.83" cy="58.11" rx="2.2" ry="2.09"/><line class="cls-4" x1="1930.3" y1="58.11" x2="2064.49" y2="58.11"/></g><g id="Tablet-9" data-name="Tablet"><rect class="cls-2" x="2211.53" y="94.25" width="37.36" height="57.34" rx="6" ry="6"/><ellipse class="cls-3" cx="2230.21" cy="138.84" rx="3.23" ry="3.07"/></g><rect class="cls-2" x="2273.73" y="3" width="205.58" height="118.65" rx="6" ry="6"/><rect class="cls-2" x="2349.39" y="121.65" width="54.27" height="29.94"/><line class="cls-4" x1="2417.95" y1="151.59" x2="2335.09" y2="151.59"/><rect class="cls-2" x="1690.88" y="44.77" width="165.72" height="90.88" rx="6" ry="6"/><rect class="cls-2" x="1676.71" y="135.66" width="194.05" height="18.27" rx="5.95" ry="5.95"/></g></svg>